<svg width="536" height="537" viewBox="0 0 536 537" fill="none" xmlns="http://www.w3.org/2000/svg">
<path d="M462.632 15.1058H68.8808V521.945H462.632V15.1058Z" fill="white"/>
<path d="M69.1756 399.942V389.995L62.3937 392.256L54.7075 400.846L49.282 408.532L47.9256 417.123L49.282 427.522L56.9681 435.208H67.8192L71.8883 431.139L76.4096 426.617L78.6703 422.096V418.479L76.4096 418.027L74.6011 417.123L78.2181 410.793L78.6703 408.08L76.4096 406.724L73.6969 408.532L74.6011 406.724L75.5054 401.298V398.133H73.6969L69.1756 399.942Z" fill="white"/>
<path d="M468.405 126.404L462.527 122.335L453.936 127.761L438.112 143.133L455.293 172.974L478.804 177.495L487.846 169.357L483.325 164.383L478.804 161.67L476.995 154.888L472.926 139.516L468.405 126.404Z" fill="white"/>
<path d="M415.109 26.6103C403.62 26.155 393.684 37.3228 395.345 48.2227C396.129 52.0216 398.073 55.4835 400.908 58.1312C403.743 60.779 407.329 62.4821 411.173 63.006C421.885 64.3986 433.562 55.4537 433.16 44.2591C432.826 39.6205 430.805 35.2647 427.48 32.0134C424.154 28.7622 419.754 26.8402 415.109 26.6103ZM422.287 55.0252L414.252 49.6689L403.781 56.2035L407.343 46.3213L401.505 42.5451L409.325 41.2596L414.252 33.3591L417.225 39.5992L426.331 39.1975L419.609 45.7053L422.287 55.0252ZM302.976 169.087C304.771 168.631 306.967 167.024 306.726 164.989C306.485 162.954 304.289 161.909 302.521 161.829C299.682 161.829 296.843 164.507 297.325 166.623C297.807 168.738 300.646 169.649 302.976 169.087ZM224.025 462.689C226.662 460.494 229.01 457.975 231.015 455.191C234.47 450.343 239.532 443.3 237.63 435.64C236.425 430.712 231.979 424.285 225.605 424.071C219.231 423.857 214.089 430.605 212.563 435.533C210.447 442.255 213.607 448.361 215.723 452.405C217.774 456.355 220.597 459.852 224.025 462.689ZM219.606 438.051C219.606 436.991 219.92 435.956 220.509 435.075C221.097 434.194 221.934 433.507 222.913 433.102C223.891 432.697 224.968 432.591 226.007 432.797C227.046 433.004 228.001 433.514 228.75 434.263C229.499 435.012 230.009 435.967 230.216 437.006C230.423 438.045 230.316 439.122 229.911 440.1C229.506 441.079 228.819 441.916 227.938 442.504C227.057 443.093 226.022 443.407 224.962 443.407C223.542 443.407 222.18 442.843 221.175 441.838C220.171 440.834 219.606 439.471 219.606 438.051ZM408.253 461.939C408.575 451.736 402.897 444.853 398.826 444.853C394.756 444.853 389.078 451.736 389.373 461.939H408.253ZM410.717 457.012L417.225 457.146C417.787 454.791 417.463 452.313 416.315 450.182C414.065 446.246 410.449 444.451 408.012 448.227C409.77 450.82 410.712 453.879 410.717 457.012ZM380.294 457.146L386.802 457.012C386.81 453.884 387.741 450.828 389.48 448.227C387.016 444.451 383.4 446.272 381.178 450.182C380.036 452.316 379.721 454.795 380.294 457.146ZM398.826 442.764C400.082 442.877 401.343 442.603 402.439 441.98C403.535 441.357 404.414 440.413 404.959 439.276C405.504 438.139 405.689 436.862 405.488 435.617C405.287 434.372 404.711 433.219 403.836 432.31C402.961 431.402 401.83 430.783 400.593 430.536C399.356 430.289 398.074 430.425 396.917 430.927C395.76 431.43 394.785 432.273 394.121 433.345C393.457 434.417 393.136 435.667 393.202 436.926C393.246 438.424 393.846 439.852 394.886 440.932C395.926 442.012 397.331 442.665 398.826 442.764ZM384.847 444.478C385.95 444.377 386.974 443.863 387.714 443.038C388.454 442.214 388.855 441.14 388.837 440.032C388.759 439.252 388.456 438.511 387.965 437.9C387.473 437.289 386.815 436.834 386.07 436.59C385.324 436.347 384.524 436.325 383.767 436.528C383.009 436.731 382.327 437.149 381.804 437.733C381.28 438.317 380.937 439.04 380.817 439.815C380.697 440.589 380.804 441.383 381.127 442.097C381.449 442.812 381.973 443.418 382.633 443.84C383.293 444.263 384.062 444.485 384.847 444.478ZM412.806 444.478C413.909 444.377 414.934 443.863 415.674 443.038C416.414 442.214 416.815 441.14 416.797 440.032C416.719 439.252 416.416 438.511 415.924 437.9C415.433 437.289 414.775 436.834 414.029 436.59C413.284 436.347 412.484 436.325 411.727 436.528C410.969 436.731 410.287 437.149 409.763 437.733C409.239 438.317 408.897 439.04 408.776 439.815C408.656 440.589 408.764 441.383 409.086 442.097C409.409 442.812 409.932 443.418 410.593 443.84C411.253 444.263 412.022 444.485 412.806 444.478ZM236.773 176.8C234.89 176.944 233.01 176.474 231.417 175.46C232.128 173.109 233.302 170.923 234.872 169.033C234.989 168.86 235.041 168.651 235.019 168.444C234.997 168.236 234.902 168.043 234.751 167.899C234.6 167.754 234.403 167.668 234.195 167.655C233.987 167.642 233.78 167.703 233.613 167.828C232.676 168.792 228.605 174.684 229.381 176.585C230.158 178.487 236.478 179.531 237.898 178.165C238.079 178.016 238.193 177.801 238.216 177.568C238.239 177.334 238.168 177.101 238.018 176.92C237.869 176.739 237.654 176.624 237.421 176.602C237.187 176.579 236.954 176.65 236.773 176.8ZM252.52 190.351C258.393 190.159 264.039 188.042 268.589 184.325C268.368 186.162 267.762 187.932 266.812 189.519C265.861 191.106 264.587 192.476 263.072 193.538C262.895 193.644 262.767 193.817 262.716 194.018C262.666 194.219 262.698 194.431 262.804 194.609C262.911 194.787 263.084 194.915 263.285 194.965C263.485 195.015 263.698 194.983 263.876 194.877C266.235 193.576 268.167 191.618 269.436 189.241C270.705 186.865 271.258 184.171 271.026 181.486C271.013 181.253 270.932 181.029 270.794 180.841C270.656 180.653 270.466 180.509 270.248 180.427C270.029 180.345 269.792 180.328 269.564 180.378C269.336 180.428 269.128 180.543 268.964 180.71C264.665 185.331 258.765 188.138 252.467 188.556C252.202 188.57 251.952 188.687 251.772 188.883C251.592 189.078 251.495 189.335 251.503 189.601C251.567 189.82 251.701 190.012 251.885 190.147C252.069 190.283 252.292 190.354 252.52 190.351ZM253.779 131.004C253.481 131.004 253.195 131.122 252.984 131.333C252.773 131.544 252.654 131.83 252.654 132.128C252.654 132.427 252.773 132.713 252.984 132.924C253.195 133.135 253.481 133.253 253.779 133.253C255.941 133.359 258.053 133.948 259.957 134.977C261.862 136.006 263.512 137.448 264.786 139.199C264.918 139.356 265.102 139.46 265.304 139.494C265.507 139.527 265.715 139.486 265.89 139.379C266.065 139.272 266.196 139.106 266.258 138.911C266.321 138.715 266.312 138.504 266.232 138.315C264.979 136.112 263.169 134.277 260.984 132.994C258.798 131.71 256.314 131.024 253.779 131.004ZM221.776 132.825C219.994 134.33 217.704 135.097 215.375 134.967C215.135 134.955 214.899 135.034 214.713 135.187C214.528 135.341 214.407 135.558 214.373 135.796C214.34 136.034 214.396 136.276 214.532 136.474C214.668 136.673 214.873 136.814 215.107 136.869C216.548 137.171 218.039 137.137 219.465 136.77C220.891 136.404 222.213 135.713 223.329 134.753C224.4 133.735 222.981 131.941 221.776 132.825ZM219.312 160.222C219.312 159.017 218.669 154.089 218.696 152.937C218.696 152.689 218.597 152.45 218.421 152.275C218.245 152.099 218.007 152 217.758 152C217.514 151.993 217.277 152.081 217.097 152.246C216.917 152.411 216.808 152.64 216.794 152.884C216.649 155.426 216.649 157.974 216.794 160.517C216.833 160.85 217.003 161.155 217.267 161.363C217.398 161.467 217.547 161.543 217.707 161.588C217.867 161.634 218.035 161.647 218.2 161.628C218.366 161.609 218.525 161.557 218.671 161.476C218.816 161.395 218.944 161.286 219.047 161.155C219.15 161.025 219.227 160.875 219.272 160.715C219.318 160.555 219.331 160.387 219.312 160.222ZM257.1 159.579C257.1 158.695 256.564 155.16 256.591 154.223C256.591 153.974 256.492 153.736 256.317 153.56C256.141 153.384 255.902 153.286 255.654 153.286C255.405 153.286 255.167 153.384 254.991 153.56C254.815 153.736 254.716 153.974 254.716 154.223C254.716 155.187 254.449 158.91 254.556 159.874C254.561 160.052 254.603 160.227 254.679 160.388C254.755 160.549 254.864 160.693 254.999 160.809C255.134 160.926 255.291 161.014 255.462 161.066C255.632 161.119 255.812 161.135 255.989 161.115C256.166 161.094 256.337 161.037 256.49 160.947C256.644 160.857 256.778 160.736 256.882 160.591C256.987 160.447 257.06 160.282 257.098 160.108C257.135 159.934 257.136 159.754 257.1 159.579Z" fill="black"/>
<path d="M132.032 276.56C132.003 276.647 132.003 276.741 132.032 276.827C143.737 303.197 162.812 325.623 186.963 341.407C211.113 357.19 239.31 365.659 268.161 365.795C351.825 365.795 420.385 295.387 416.877 209.205C415.615 178.285 404.431 148.592 384.98 124.523C369.831 105.903 350.421 91.2055 328.392 81.6725C328.675 80.7068 328.89 79.7224 329.034 78.7266C330.534 68.9514 326.356 62.4168 318.938 55.8018C315.21 52.589 311.293 49.602 307.208 46.8569C303.153 43.8187 298.467 41.7318 293.496 40.7508C290.85 40.2169 288.115 40.3146 285.514 41.0359C282.913 41.7572 280.518 43.0817 278.525 44.9019C277.775 45.6785 277.132 46.9104 276.329 47.3925C275.158 47.7471 273.921 47.8296 272.714 47.6335C264.522 47.6323 256.416 49.3067 248.895 52.5536C241.374 55.8006 234.597 60.5515 228.98 66.5143C225.615 67.0804 222.438 68.4561 219.722 70.5229C217.007 72.5897 214.835 75.2856 213.393 78.3784C133.317 111.614 99.2513 198.894 132.032 276.56ZM222.472 299.002C219.35 288.708 217.991 277.96 218.455 267.213C218.856 258.268 219.499 243.324 229.167 237.057C232.182 234.964 235.472 233.297 238.942 232.103C235.862 249.162 241.835 266.329 249.066 281.916C244.486 283.55 226.677 296.351 222.472 299.056V299.002ZM243.897 232.049C243.656 229.371 242.424 221.337 242.236 220.078C242.2 219.52 242.02 218.981 241.716 218.512C241.411 218.043 240.991 217.66 240.496 217.4C239.612 216.945 235.675 215.606 234.631 215.07C222.284 209.017 213.072 194.609 214.25 173.586C217.508 174.06 220.826 173.905 224.025 173.13C228.23 171.872 230.854 167.908 231.792 161.374C232.398 160.82 233.115 160.402 233.895 160.147C234.676 159.893 235.502 159.809 236.318 159.901C237.981 160.043 239.592 160.555 241.031 161.4C241.336 163.526 242.134 165.552 243.362 167.314C244.59 169.077 246.213 170.527 248.102 171.55C252.342 173.599 257.207 173.941 261.693 172.506C266.178 171.07 269.941 167.967 272.205 163.837C273.35 161.55 274.067 159.072 274.32 156.526C278.878 156.801 283.452 156.413 287.898 155.375C287.898 156.74 287.898 159.204 288.782 159.686C291.728 161.159 296.817 149.322 303.967 149.322C306.208 149.465 308.321 150.417 309.913 152C311.146 152.912 312.151 154.098 312.848 155.464C313.545 156.83 313.915 158.34 313.93 159.874C313.762 161.224 313.327 162.528 312.651 163.71C311.976 164.891 311.072 165.927 309.993 166.757C306.795 169.766 302.599 171.492 298.209 171.604C298.117 171.614 298.03 171.647 297.954 171.7C297.878 171.752 297.816 171.823 297.774 171.905C297.731 171.987 297.71 172.078 297.711 172.17C297.712 172.263 297.736 172.353 297.781 172.434C302.163 179.701 305.244 187.676 306.886 196.002C305.44 211.776 304.824 218.498 304.53 221.765C302.066 251.225 291.916 275.703 275.579 300.368C271.918 305.545 268.846 311.115 266.42 316.973C257.395 288.611 235.059 262.044 240.71 231.915C241.179 231.725 241.662 231.572 242.156 231.46C242.156 231.871 242.236 232.219 242.397 232.505C242.416 232.603 242.455 232.697 242.511 232.78C242.566 232.864 242.638 232.936 242.721 232.992C242.804 233.048 242.898 233.087 242.996 233.106C243.094 233.126 243.196 233.126 243.294 233.107C243.393 233.088 243.486 233.049 243.57 232.994C243.654 232.938 243.725 232.867 243.781 232.783C243.837 232.7 243.876 232.606 243.896 232.508C243.916 232.41 243.916 232.308 243.897 232.21V232.049ZM261.787 120.05C260.387 118.914 258.813 118.01 257.127 117.372C267.839 116.381 276.115 113.328 283.426 104.731C284.229 105.16 288.782 107.409 289.479 107.865C297.245 119.943 292.987 124.871 290.148 139.734C289.291 144.207 288.434 148.867 287.952 152.964C283.515 154.091 278.952 154.649 274.374 154.625C274.588 152.509 274.695 150.233 274.99 148.036C275.54 147.815 276.002 147.417 276.301 146.904C276.601 146.392 276.722 145.795 276.645 145.206C276.569 144.618 276.299 144.071 275.878 143.653C275.457 143.235 274.909 142.968 274.32 142.894L242.183 142.118C241.697 142.147 241.228 142.309 240.827 142.585C240.426 142.861 240.108 143.242 239.907 143.685C239.706 144.128 239.63 144.618 239.686 145.102C239.743 145.585 239.93 146.044 240.228 146.43C240.041 150.603 240.176 154.784 240.63 158.936C239.284 158.263 237.806 157.894 236.302 157.857C234.797 157.82 233.303 158.115 231.926 158.722C232.151 155.012 232.008 151.289 231.497 147.608C231.862 147.27 232.134 146.844 232.287 146.371C232.439 145.897 232.467 145.392 232.367 144.905C232.268 144.418 232.044 143.964 231.718 143.589C231.392 143.213 230.975 142.928 230.506 142.761C230.238 142.761 230.667 142.761 213.5 142.332C213.714 136.976 213.795 122.112 216.178 114.854C229.837 125.058 246.468 128.245 261.706 120.907C261.806 120.823 261.871 120.705 261.886 120.575C261.901 120.445 261.865 120.315 261.787 120.211V120.05ZM273.303 148.251C272.606 152.402 272.901 156.767 271.374 160.65C269.786 164.62 266.728 167.823 262.837 169.594C258.946 171.365 254.521 171.567 250.485 170.158C248.509 169.493 246.764 168.278 245.455 166.655C244.145 165.033 243.326 163.07 243.093 160.999C242.433 156.567 242.155 152.087 242.263 147.608C246.602 148.01 269.232 148.331 273.303 148.411V148.251ZM229.676 148.251C230.399 155 230.774 166.998 224.775 170.318C222.992 171.092 221.068 171.485 219.124 171.47C217.425 171.618 215.714 171.537 214.036 171.229C212.304 170.942 210.685 170.183 209.357 169.035C208.029 167.886 207.044 166.394 206.51 164.721C205.243 159.11 204.72 153.356 204.957 147.608L229.676 148.251ZM266.848 348.28C260.501 338.157 238.353 303.877 232.515 295.307C237.706 290.72 243.467 286.822 249.655 283.71C251.449 287.138 263.045 310.947 265.429 320.481C265.49 320.693 265.619 320.879 265.795 321.011C265.971 321.144 266.186 321.216 266.406 321.216C266.627 321.216 266.842 321.144 267.018 321.011C267.194 320.879 267.323 320.693 267.384 320.481C271.133 305.966 280.373 299.404 291.193 276.854C297.285 280.261 302.829 284.568 307.636 289.629C302.628 298.44 275.847 337.808 266.848 348.414V348.28ZM316.019 293.593C300.486 279.104 294.138 275.783 292.183 275.033C299.714 259.28 304.522 242.365 306.404 225.006C314.171 231.032 322.205 236.95 329.383 243.512C327.829 250.823 319.313 283.469 316.019 293.593ZM327.936 83.333C395.88 114.131 432.383 187.378 406.593 265.178C393.39 259.473 342.586 243.967 330.963 242.173C327.695 239.066 312.216 227.041 306.672 222.837C306.672 221.551 306.458 225.3 308.6 199.296C308.6 199.001 314.573 169.301 317.09 162.82C318.44 159.392 320.079 156.086 321.991 152.937C325.121 147.276 326.074 140.666 324.669 134.351C324.146 132.347 323.236 130.463 321.991 128.808C324.71 126.144 326.574 122.732 327.347 119.006C328.07 113.355 325.258 107.865 322.527 103.124C324.538 99.9584 325.683 96.3198 325.848 92.5725C325.774 91.1513 325.371 89.7667 324.669 88.5285C326.071 87.0344 327.147 85.2651 327.829 83.333H327.936ZM217.383 76.3966C225.418 65.0146 241.487 67.8802 255.065 70.6119C271.47 73.9571 287.432 79.1967 302.628 86.2253C302.799 86.3141 302.997 86.3315 303.181 86.2738C303.364 86.216 303.517 86.0878 303.606 85.9173C303.694 85.7469 303.712 85.5481 303.654 85.3648C303.596 85.1815 303.468 85.0286 303.298 84.9398C288.604 77.7146 273.08 72.3181 257.073 68.8711C249.441 67.2374 240.308 65.336 232.381 66.193C241.511 57.6047 253.128 52.1294 265.563 50.5527C274.053 49.4815 276.49 51.2222 278.793 48.3566C279.936 46.7731 281.418 45.4647 283.131 44.5269C287.55 42.2237 294.005 41.8488 301.718 46.2409C305.881 48.625 309.864 51.3103 313.635 54.2753C317.415 57.0105 320.764 60.2964 323.571 64.0237C326.206 67.5041 327.474 71.8301 327.133 76.1824C327.006 80.0047 325.654 83.6851 323.276 86.6806C322.229 85.4712 321.082 84.3514 319.848 83.333C313.475 77.9767 292.05 62.8721 287.711 60.2207C287.53 60.1071 287.311 60.07 287.103 60.1178C286.894 60.1655 286.713 60.294 286.6 60.4752C286.486 60.6563 286.449 60.8751 286.497 61.0836C286.544 61.292 286.673 61.4729 286.854 61.5866C292.933 65.3895 311.68 79.4229 316.313 83.3597C319.313 85.8504 322.205 88.1 323.062 90.7514C324.348 94.8489 321.991 98.7857 320.384 102.589C320.303 102.767 320.281 102.967 320.319 103.159C320.357 103.351 320.455 103.526 320.598 103.66C323.009 107.998 325.794 114.078 325.017 119.006C324.269 122.058 322.683 124.841 320.438 127.04C309.457 113.971 283.292 99.3214 265.884 92.76C245.477 84.9666 219.713 84.9398 212.697 87.859C213.409 83.7435 215.008 79.8322 217.383 76.3966ZM212.027 81.5118C211.18 84.0168 210.588 86.6009 210.26 89.2248C208.197 90.0818 206.35 93.5634 204.903 99.1607C203.163 106.606 201.636 113.033 205.359 119.327C207.04 122.073 209.389 124.349 212.188 125.942C211.867 128.62 211.036 138.395 211.117 142.466L204.073 142.305H203.886C203.363 142.409 202.883 142.666 202.507 143.044C202.131 143.422 201.876 143.903 201.776 144.427C201.675 144.95 201.733 145.492 201.942 145.982C202.151 146.473 202.501 146.889 202.948 147.179C202.83 152.937 203.17 158.696 203.966 164.4C204.373 166.453 205.338 168.355 206.756 169.895C208.173 171.435 209.988 172.555 212 173.13C211.255 182.785 213.212 192.457 217.651 201.063C221.807 209.104 228.789 215.324 237.255 218.525C239.933 219.409 239.933 219.301 240.201 220.748C240.201 220.748 241.326 227.496 241.701 229.532C233.794 230.84 226.604 234.899 221.401 240.994C190.271 246.914 160.512 258.565 133.638 275.355C125.985 257.483 121.946 238.273 121.753 218.832C121.56 199.392 125.218 180.105 132.515 162.085C139.812 144.065 150.605 127.668 164.27 113.839C177.935 100.01 194.202 89.0231 212.134 81.5118H212.027ZM128.55 37.5906C130.13 37.4299 129.943 35.0464 128.55 35.2338C122.283 35.4213 98.2604 36.2247 91.7794 36.1712C91.6014 36.2046 91.4408 36.2992 91.3252 36.4386C91.2096 36.578 91.1463 36.7534 91.1463 36.9344C91.1463 37.1155 91.2096 37.2909 91.3252 37.4302C91.4408 37.5696 91.6014 37.6642 91.7794 37.6977C97.7784 37.9923 122.444 38.2065 128.55 37.5906ZM125.872 43.9109C123.435 43.9109 97.7516 45.9195 92.6096 45.9999C92.4036 45.9999 92.2061 46.0817 92.0604 46.2274C91.9147 46.373 91.8329 46.5706 91.8329 46.7765C91.8329 46.9825 91.9147 47.1801 92.0604 47.3257C92.2061 47.4714 92.4036 47.5532 92.6096 47.5532C96.7875 47.5532 122.953 46.8569 126.14 46.2409C126.426 46.1791 126.678 46.0132 126.849 45.7755C127.019 45.5377 127.095 45.2452 127.061 44.9546C127.028 44.6641 126.888 44.3963 126.668 44.2035C126.448 44.0106 126.164 43.9063 125.872 43.9109ZM130.13 54.4895C130.13 54.4895 97.2695 55.7215 94.1361 55.7483C93.9314 55.7843 93.746 55.8913 93.6124 56.0505C93.4788 56.2097 93.4056 56.4108 93.4056 56.6187C93.4056 56.8265 93.4788 57.0276 93.6124 57.1868C93.746 57.346 93.9314 57.453 94.1361 57.489C106.188 57.489 118.239 57.9443 130.21 56.9802C130.509 56.9276 130.778 56.7691 130.969 56.534C131.16 56.2989 131.26 56.0028 131.25 55.7001C131.24 55.3973 131.121 55.1083 130.916 54.8859C130.71 54.6636 130.431 54.5228 130.13 54.4895ZM310.663 453.905L308.681 452.887C308.611 452.847 308.533 452.826 308.453 452.826C308.373 452.826 308.295 452.847 308.225 452.887C305.631 455.09 303.547 457.832 302.119 460.922C302.08 461.019 302.077 461.126 302.112 461.225C302.146 461.324 302.216 461.406 302.307 461.457C304.22 462.451 306.338 462.982 308.493 463.011C315.617 463.011 320.116 456.905 324.133 451.227C327.615 446.246 331.98 440.059 329.811 434.06C329.068 432.058 327.779 430.304 326.089 428.999C326.019 428.935 325.928 428.899 325.834 428.899C325.74 428.899 325.649 428.935 325.58 428.999C322.814 431.099 320.622 433.862 319.206 437.033C319.162 437.096 319.139 437.171 319.139 437.247C319.139 437.324 319.162 437.399 319.206 437.461L321.375 439.524C318.871 445.026 315.218 449.93 310.663 453.905ZM303.994 450.37C302.169 452.436 300.529 454.658 299.093 457.012C298.397 458.538 300.432 459.288 300.968 458.351C302.465 456.041 304.111 453.831 305.895 451.736C306.458 451.147 305.306 449.486 303.994 450.37ZM317.492 435.078C317.66 435.083 317.827 435.05 317.98 434.98C318.134 434.91 318.269 434.806 318.376 434.676C319.881 432.373 321.527 430.164 323.303 428.061C323.892 427.445 322.741 425.812 321.375 426.722C319.568 428.78 317.946 430.994 316.528 433.337C316.425 433.51 316.369 433.707 316.365 433.908C316.362 434.11 316.412 434.308 316.509 434.485C316.607 434.661 316.749 434.808 316.921 434.912C317.094 435.016 317.29 435.074 317.492 435.078ZM397.38 400.798C397.551 400.8 397.719 400.762 397.873 400.688C398.026 400.614 398.16 400.505 398.264 400.369C398.368 400.234 398.439 400.077 398.472 399.91C398.504 399.742 398.497 399.57 398.451 399.405L399.067 380.658C399.067 379.212 399.201 377.418 397.541 376.481C395.88 375.543 133.799 374.927 134.094 374.927C134.002 374.931 133.912 374.958 133.833 375.004C133.753 375.051 133.687 375.117 133.638 375.195C132.815 382.305 132.484 389.464 132.648 396.62C132.961 397.268 133.465 397.806 134.092 398.16C134.719 398.514 135.439 398.668 136.156 398.602C139.825 398.602 397.38 400.798 397.38 400.798ZM396.845 380.712C396.845 381.328 396.845 380.953 396.363 398.521C383.829 398.147 137.227 396.218 135.379 396.111C134.549 395.817 134.549 395.013 134.603 393.754L135.111 377.177C148.261 377.552 395.157 378.195 396.175 378.275C397.193 378.355 396.925 379.453 396.845 380.712ZM157.313 478.919C157.626 478.919 157.925 478.795 158.146 478.574C158.367 478.353 158.491 478.053 158.491 477.74C158.491 477.428 158.367 477.128 158.146 476.907C157.925 476.686 157.626 476.562 157.313 476.562C151.314 476.91 127.023 477.58 120.542 477.499C120.364 477.533 120.204 477.628 120.088 477.767C119.973 477.906 119.909 478.082 119.909 478.263C119.909 478.444 119.973 478.619 120.088 478.759C120.204 478.898 120.364 478.992 120.542 479.026C126.515 479.321 151.127 479.508 157.313 478.919ZM154.501 485.239C152.091 485.239 126.408 487.248 121.239 487.328C121.033 487.328 120.835 487.41 120.69 487.556C120.544 487.701 120.462 487.899 120.462 488.105C120.462 488.311 120.544 488.508 120.69 488.654C120.835 488.8 121.033 488.881 121.239 488.881C126.086 488.881 151.689 488.158 154.769 487.569C155.055 487.507 155.307 487.341 155.478 487.104C155.648 486.866 155.724 486.573 155.69 486.283C155.657 485.992 155.517 485.725 155.297 485.532C155.077 485.339 154.793 485.235 154.501 485.239ZM158.84 495.845C158.84 495.845 126.033 497.05 122.819 497.077C122.614 497.113 122.429 497.22 122.295 497.379C122.162 497.538 122.088 497.739 122.088 497.947C122.088 498.155 122.162 498.356 122.295 498.515C122.429 498.674 122.614 498.781 122.819 498.817C134.817 498.817 146.922 499.273 158.866 498.308C159.028 498.307 159.188 498.273 159.337 498.21C159.486 498.146 159.62 498.054 159.734 497.938C159.847 497.823 159.936 497.686 159.996 497.536C160.057 497.385 160.087 497.225 160.085 497.063C160.083 496.901 160.05 496.741 159.986 496.593C159.923 496.444 159.83 496.309 159.715 496.196C159.599 496.083 159.462 495.993 159.312 495.933C159.162 495.873 159.001 495.843 158.84 495.845ZM242.611 478.919C242.924 478.919 243.224 478.795 243.445 478.574C243.666 478.353 243.79 478.053 243.79 477.74C243.79 477.428 243.666 477.128 243.445 476.907C243.224 476.686 242.924 476.562 242.611 476.562C236.559 476.883 212.295 477.58 205.841 477.499C205.663 477.533 205.502 477.628 205.387 477.767C205.271 477.906 205.208 478.082 205.208 478.263C205.208 478.444 205.271 478.619 205.387 478.759C205.502 478.898 205.663 478.992 205.841 479.026C211.84 479.321 236.398 479.508 242.611 478.919ZM239.799 485.239C237.389 485.239 211.706 487.248 206.537 487.328C206.331 487.328 206.133 487.41 205.988 487.556C205.842 487.701 205.76 487.899 205.76 488.105C205.76 488.311 205.842 488.508 205.988 488.654C206.133 488.8 206.331 488.881 206.537 488.881C211.358 488.881 236.961 488.158 240.04 487.569C240.324 487.508 240.575 487.344 240.745 487.109C240.915 486.874 240.993 486.585 240.963 486.296C240.933 486.008 240.798 485.74 240.583 485.545C240.368 485.35 240.089 485.241 239.799 485.239ZM244.165 495.845C244.165 495.845 211.331 497.05 208.144 497.077C207.939 497.113 207.754 497.22 207.62 497.379C207.487 497.538 207.413 497.739 207.413 497.947C207.413 498.155 207.487 498.356 207.62 498.515C207.754 498.674 207.939 498.781 208.144 498.817C220.142 498.817 232.247 499.273 244.191 498.308C244.518 498.305 244.83 498.172 245.059 497.938C245.287 497.705 245.414 497.39 245.41 497.063C245.406 496.736 245.273 496.424 245.04 496.196C244.806 495.967 244.491 495.841 244.165 495.845ZM330.534 478.919C330.847 478.919 331.146 478.795 331.367 478.574C331.588 478.353 331.713 478.053 331.713 477.74C331.713 477.428 331.588 477.128 331.367 476.907C331.146 476.686 330.847 476.562 330.534 476.562C324.482 476.91 300.245 477.58 293.737 477.499C293.559 477.533 293.398 477.628 293.283 477.767C293.167 477.906 293.104 478.082 293.104 478.263C293.104 478.444 293.167 478.619 293.283 478.759C293.398 478.898 293.559 478.992 293.737 479.026C299.763 479.321 324.321 479.508 330.534 478.919ZM327.722 485.239C325.339 485.239 299.629 487.248 294.487 487.328C294.281 487.328 294.083 487.41 293.937 487.556C293.792 487.701 293.71 487.899 293.71 488.105C293.71 488.311 293.792 488.508 293.937 488.654C294.083 488.8 294.281 488.881 294.487 488.881C299.307 488.881 324.91 488.158 328.017 487.569C328.306 487.508 328.561 487.34 328.732 487.099C328.904 486.858 328.978 486.562 328.941 486.269C328.904 485.976 328.758 485.707 328.532 485.516C328.307 485.326 328.017 485.227 327.722 485.239ZM332.088 495.845C332.088 495.845 299.254 497.05 296.067 497.077C295.862 497.113 295.677 497.22 295.543 497.379C295.409 497.538 295.336 497.739 295.336 497.947C295.336 498.155 295.409 498.356 295.543 498.515C295.677 498.674 295.862 498.781 296.067 498.817C308.065 498.817 320.17 499.273 332.114 498.308C332.441 498.305 332.753 498.172 332.982 497.938C333.21 497.705 333.336 497.39 333.333 497.063C333.329 496.736 333.196 496.424 332.963 496.196C332.729 495.967 332.414 495.841 332.088 495.845ZM416.047 478.919C416.359 478.919 416.659 478.795 416.88 478.574C417.101 478.353 417.225 478.053 417.225 477.74C417.225 477.428 417.101 477.128 416.88 476.907C416.659 476.686 416.359 476.562 416.047 476.562C410.048 476.883 385.757 477.58 379.249 477.499C379.071 477.533 378.911 477.628 378.795 477.767C378.68 477.906 378.616 478.082 378.616 478.263C378.616 478.444 378.68 478.619 378.795 478.759C378.911 478.898 379.071 478.992 379.249 479.026C385.275 479.321 409.753 479.508 416.047 478.919ZM413.235 485.239C410.851 485.239 385.141 487.248 379.999 487.328C379.793 487.328 379.596 487.41 379.45 487.556C379.304 487.701 379.223 487.899 379.223 488.105C379.223 488.311 379.304 488.508 379.45 488.654C379.596 488.8 379.793 488.881 379.999 488.881C384.82 488.881 410.423 488.158 413.529 487.569C413.818 487.508 414.074 487.34 414.245 487.099C414.416 486.858 414.491 486.562 414.453 486.269C414.416 485.976 414.271 485.707 414.045 485.516C413.819 485.326 413.53 485.227 413.235 485.239ZM417.6 495.845C417.6 495.845 384.766 497.05 381.579 497.077C381.375 497.113 381.189 497.22 381.056 497.379C380.922 497.538 380.849 497.739 380.849 497.947C380.849 498.155 380.922 498.356 381.056 498.515C381.189 498.674 381.375 498.781 381.579 498.817C393.551 498.817 405.682 499.273 417.627 498.308C417.954 498.305 418.266 498.172 418.494 497.938C418.723 497.705 418.849 497.39 418.845 497.063C418.842 496.736 418.709 496.424 418.475 496.196C418.242 495.967 417.927 495.841 417.6 495.845ZM162.857 464.162L156.644 464.028C156.644 460.868 156.429 452.727 156.322 450.209C157.129 449.535 157.65 448.579 157.779 447.535C157.909 446.491 157.637 445.436 157.018 444.585C156.777 444.237 157.018 444.317 149.439 444.585V439.229C149.91 438.56 150.227 437.795 150.366 436.99C150.505 436.184 150.463 435.357 150.243 434.569C150.212 434.451 150.143 434.347 150.046 434.274C149.948 434.201 149.829 434.164 149.707 434.167L140.173 434.462C140.012 432.427 139.316 425.115 139.048 424.633C138.866 424.285 138.56 424.018 138.191 423.883C141.512 419.09 136.29 417.402 137.307 414.938C137.736 413.894 136.183 413.171 135.567 414.135C134.061 416.151 132.902 418.405 132.139 420.803C132.162 421.514 132.36 422.209 132.715 422.825C133.07 423.442 133.571 423.961 134.174 424.339C133.785 424.493 133.458 424.771 133.24 425.128C133.023 425.486 132.928 425.904 132.969 426.32V434.649L125.336 434.89C125.226 434.892 125.12 434.93 125.033 434.998C124.946 435.065 124.883 435.159 124.854 435.265C124.559 436.125 124.488 437.046 124.648 437.941C124.807 438.836 125.191 439.675 125.765 440.381C125.765 441.907 125.952 443.996 126.113 445.496C118.4 445.817 118.695 445.71 118.453 445.978C116.525 448.281 115.293 452.271 117.57 454.012V463.734H113.07C112.85 463.734 112.639 463.821 112.483 463.977C112.328 464.133 112.24 464.344 112.24 464.564C112.24 464.784 112.328 464.995 112.483 465.151C112.639 465.307 112.85 465.394 113.07 465.394C113.365 465.394 162.509 465.983 162.964 465.93C163.198 465.916 163.417 465.809 163.573 465.633C163.729 465.457 163.808 465.227 163.794 464.993C163.78 464.758 163.673 464.539 163.497 464.383C163.322 464.228 163.091 464.148 162.857 464.162ZM138.245 434.569H134.897V426.106C135.765 425.845 136.669 425.718 137.575 425.731C137.629 426.856 138.111 432.828 138.245 434.569ZM134.121 420.643C134.6 419.573 135.164 418.543 135.808 417.563C136.692 419.277 137.977 420.241 137.227 421.928C136.904 422.513 136.518 423.061 136.076 423.562C134.897 422.732 133.906 421.768 134.121 420.589V420.643ZM133.531 439.524C133.892 440.284 134.461 440.926 135.172 441.376C135.883 441.826 136.707 442.065 137.549 442.065C138.39 442.065 139.214 441.826 139.925 441.376C140.636 440.926 141.205 440.284 141.566 439.524C142.29 440.216 143.184 440.705 144.157 440.94C145.131 441.175 146.149 441.148 147.109 440.863V444.8L127.988 445.549C127.988 444.237 127.854 442.871 127.747 441.639C128.817 441.839 129.922 441.743 130.941 441.361C131.961 440.978 132.856 440.325 133.531 439.47V439.524ZM119.578 463.627V454.601C120.779 454.692 121.985 454.521 123.113 454.1C124.241 453.679 125.265 453.019 126.113 452.164C127.095 453.045 128.369 453.532 129.688 453.532C131.008 453.532 132.281 453.045 133.264 452.164C136.37 455.566 141.03 453.985 143.601 450.209C144.109 450.93 144.773 451.526 145.544 451.955C146.314 452.383 147.171 452.633 148.052 452.684C148.932 452.735 149.812 452.588 150.627 452.252C151.443 451.916 152.172 451.401 152.76 450.745C153.327 450.896 153.917 450.941 154.501 450.879C154.501 453.718 154.501 460.895 154.689 463.895C146.467 463.841 124.961 463.68 119.578 463.68V463.627Z" fill="black"/>
<path d="M481.902 162.043C477.67 159.044 480.67 159.365 474.51 139.092C472.421 132.209 470.091 123.933 463.798 121.282C463.798 101.303 463.798 18.0671 463.931 15.2283C464.042 15.0487 464.102 14.8429 464.105 14.6324C464.109 14.4218 464.056 14.2141 463.952 14.0309C463.848 13.8477 463.697 13.6957 463.514 13.5907C463.332 13.4857 463.124 13.4316 462.914 13.4339C412.297 13.4339 97.6444 14.8533 69.7384 15.1747C69.5697 15.1782 69.4042 15.2215 69.2554 15.301C69.1066 15.3806 68.9787 15.4942 68.8821 15.6325C68.7855 15.7709 68.723 15.9301 68.6996 16.0972C68.6762 16.2643 68.6926 16.4345 68.7475 16.5941C68.0779 51.8114 67.1138 244.101 66.8728 317.428C52.6619 329.911 41.5027 345.486 34.2532 362.956C21.184 394.906 20.4073 419.197 31.9768 434.81C39.6363 445.255 54.9284 456.985 67.0603 451.602C66.6853 502.647 66.5782 517.564 66.8728 521.876C67.0067 523.885 67.2477 523.59 67.5423 523.59C67.8369 523.59 445.345 522.894 462.084 522.706C462.293 522.706 462.499 522.648 462.678 522.54C462.857 522.431 463.004 522.276 463.101 522.09C463.235 521.822 463.824 402.405 464.28 370.723C467.547 370.633 470.749 369.791 473.638 368.263C476.527 366.735 479.025 364.562 480.938 361.912C487.495 353.704 492.902 344.64 497.006 334.97C503.059 319.035 507.424 307.546 509.968 289.736C515.592 250.502 507.156 207.652 490.204 172.113C487.178 165.712 487.606 166.087 481.902 162.043ZM58.9188 433.659C53.8839 431.329 49.3043 420.83 51.1522 411.778C52.6091 405.832 55.9086 400.498 60.5792 396.54C62.7125 394.425 65.0544 392.532 67.5691 390.889V400.128C65.5642 401.505 63.7613 403.154 62.2128 405.029C62.0924 405.219 62.0466 405.447 62.0842 405.669C62.1218 405.891 62.2401 406.091 62.4164 406.23C62.5927 406.37 62.8145 406.44 63.039 406.426C63.2635 406.412 63.4748 406.315 63.6323 406.154C66.264 403.558 69.2925 401.397 72.604 399.753C74.9339 398.709 75.416 399.191 74.8536 401.36C74.3694 403.97 73.0874 406.366 71.1846 408.216C69.2849 409.744 67.1855 411.006 64.9445 411.966C63.7319 412.486 62.5819 413.142 61.5165 413.921C61.375 414.062 61.2895 414.25 61.2757 414.45C61.2619 414.65 61.3207 414.848 61.4414 415.008C61.562 415.168 61.7364 415.278 61.9323 415.32C62.1282 415.361 62.3324 415.33 62.5074 415.233C64.6499 413.814 71.372 411.725 75.0678 409.127C77.746 407.279 77.987 408.672 77.0764 411.43C75.2018 416.974 68.6939 419.839 64.3821 423.321C64.2323 423.472 64.14 423.67 64.1211 423.882C64.1023 424.094 64.1581 424.305 64.279 424.48C64.3998 424.655 64.578 424.782 64.7827 424.84C64.9875 424.897 65.2058 424.881 65.3998 424.794C66.605 424.124 67.8101 423.294 69.5241 422.116C71.2381 420.937 76.0855 418.5 77.8531 419.438C78.0527 419.53 78.2219 419.677 78.3405 419.862C78.4592 420.047 78.5224 420.262 78.5226 420.482C78.7904 422.41 77.1836 424.285 75.5499 426.374C68.0512 435.962 61.8647 435.078 58.9188 433.659ZM461.039 520.269C437.739 520.403 87.0926 521.287 68.8546 521.501C69.0688 513.868 68.8546 465.609 68.9885 435.132C72.6284 432.365 75.9837 429.243 79.0047 425.812C79.7546 424.767 82.0845 421.152 80.2634 418.313C79.8568 417.704 79.2774 417.231 78.5997 416.954C77.922 416.677 77.177 416.61 76.4605 416.76C78.308 414.838 79.4746 412.364 79.7813 409.716C79.7813 408.886 80.0224 407.038 78.4423 406.261C77.889 406.08 77.3014 406.03 76.7254 406.113C76.1493 406.197 75.6003 406.413 75.1214 406.743C75.3624 406.368 75.5499 405.993 75.7642 405.592C76.7283 403.69 78.0673 399.325 76.9961 397.718C75.5231 395.549 71.7737 397.343 69.5241 398.682C69.6848 148.545 70.9703 59.0156 70.8364 17.2636C96.7339 17.2636 445.533 15.8442 461.843 15.7371C461.628 30.6007 461.28 132.878 461.28 132.878C456.833 133.61 452.574 135.211 448.747 137.592C447.7 138.097 446.825 138.898 446.229 139.895C446.027 140.245 445.901 140.633 445.861 141.035C445.821 141.438 445.867 141.844 445.996 142.226C446.125 142.609 446.335 142.96 446.611 143.255C446.886 143.551 447.222 143.784 447.595 143.939C446.497 144.6 445.577 145.519 444.917 146.617C444.649 147.657 444.774 148.759 445.268 149.713C445.763 150.667 446.591 151.405 447.595 151.786C444.756 154.33 445.319 158.803 451.05 159.633C454.539 160.122 458.088 159.968 461.521 159.177C463.101 182.825 460.771 505.138 461.039 520.269ZM464.253 164.909C464.092 162.954 463.905 160.891 463.664 158.695C465.38 158.175 467.047 157.503 468.645 156.687C469.77 156.124 468.859 154.437 467.734 155C463.474 156.98 458.796 157.899 454.103 157.678C452.362 157.678 449.443 157.678 448.747 155.991C448.05 154.303 449.737 153.045 450.889 152.723C455.943 153.479 461.104 152.537 465.565 150.045C465.778 149.931 465.937 149.738 466.008 149.507C466.078 149.276 466.054 149.026 465.94 148.813C465.826 148.6 465.633 148.441 465.402 148.371C465.171 148.3 464.921 148.325 464.708 148.438C460.68 150.373 456.173 151.08 451.746 150.474C448.586 150.045 447.113 149.161 447.166 147.795C447.166 147.153 449.845 145.117 450.916 144.662C455.659 145.335 460.474 145.335 465.217 144.662C466.422 144.501 466.261 142.653 465.056 142.814C461.468 143.269 449.952 142.975 448.854 142.011C448.738 141.935 448.642 141.832 448.576 141.711C448.51 141.589 448.476 141.453 448.476 141.314C448.476 141.176 448.51 141.04 448.576 140.918C448.642 140.797 448.738 140.693 448.854 140.618C451.692 137.672 461.816 134.699 464.521 134.271C464.734 134.246 464.928 134.138 465.061 133.969C465.194 133.801 465.255 133.587 465.23 133.374C465.206 133.161 465.097 132.966 464.929 132.833C464.761 132.7 464.546 132.639 464.333 132.664H463.878V123.532C468.699 126.397 470.573 132.959 472.073 138.261C478.822 161.802 474.965 160.249 481.848 164.882C482.947 165.577 483.97 166.385 484.901 167.292C478.072 171.524 470.332 169.97 464.253 164.989V164.909Z" fill="black"/>
<path d="M287.765 294.209C287.145 294.209 286.539 294.392 286.024 294.737C285.508 295.081 285.107 295.57 284.87 296.143C284.633 296.715 284.57 297.345 284.691 297.953C284.812 298.561 285.111 299.119 285.549 299.558C285.987 299.996 286.545 300.294 287.153 300.415C287.761 300.536 288.391 300.474 288.964 300.237C289.536 300 290.026 299.598 290.37 299.083C290.714 298.568 290.898 297.962 290.898 297.342C290.898 296.511 290.568 295.714 289.98 295.126C289.393 294.539 288.596 294.209 287.765 294.209ZM278.525 309.527C277.836 309.527 277.163 309.732 276.591 310.114C276.018 310.497 275.572 311.04 275.308 311.677C275.045 312.313 274.976 313.013 275.11 313.688C275.245 314.364 275.576 314.984 276.063 315.471C276.55 315.958 277.17 316.289 277.846 316.424C278.521 316.558 279.221 316.489 279.857 316.226C280.494 315.962 281.037 315.516 281.42 314.943C281.802 314.371 282.007 313.698 282.007 313.009C282.007 312.086 281.64 311.2 280.987 310.547C280.334 309.894 279.448 309.527 278.525 309.527ZM270.223 322.972C269.693 322.972 269.175 323.129 268.735 323.423C268.295 323.717 267.951 324.136 267.749 324.625C267.546 325.114 267.493 325.653 267.596 326.172C267.7 326.692 267.955 327.169 268.329 327.543C268.704 327.918 269.181 328.173 269.7 328.276C270.22 328.38 270.758 328.327 271.248 328.124C271.737 327.921 272.155 327.578 272.45 327.138C272.744 326.697 272.901 326.179 272.901 325.65C272.901 324.939 272.619 324.258 272.117 323.756C271.614 323.254 270.933 322.972 270.223 322.972Z" fill="black"/>
</svg>

