<svg width="30" height="31" viewBox="0 0 30 31" fill="none" xmlns="http://www.w3.org/2000/svg">
<path d="M30 15.5878C30 7.27318 23.2842 0.532715 15 0.532715C6.7158 0.532715 0 7.27318 0 15.5878C0 22.6481 4.8432 28.5725 11.3766 30.1997V20.1887H8.2836V15.5878H11.3766V13.6054C11.3766 8.48121 13.6872 6.10611 18.6996 6.10611C19.65 6.10611 21.2898 6.2934 21.9606 6.48008V10.6503C21.6066 10.613 20.9916 10.5943 20.2278 10.5943C17.7684 10.5943 16.818 11.5296 16.818 13.9607V15.5878H21.7176L20.8758 20.1887H16.818V30.5327C24.2442 29.6324 30 23.2852 30 15.5878Z" fill="#0038FF"/>
</svg>
