<svg width="30" height="30" viewBox="0 0 30 30" fill="none" xmlns="http://www.w3.org/2000/svg">
<path fill-rule="evenodd" clip-rule="evenodd" d="M29.4 15.3411C29.4 14.2774 29.3045 13.2547 29.1273 12.2729H15V18.0752H23.0727C22.725 19.9502 21.6682 21.5388 20.0795 22.6024V26.3661H24.9273C27.7636 23.7547 29.4 19.9092 29.4 15.3411Z" fill="#4285F4"/>
<path fill-rule="evenodd" clip-rule="evenodd" d="M15.0001 30.0002C19.0501 30.0002 22.4456 28.657 24.9274 26.3661L20.0797 22.6025C18.7365 23.5025 17.0183 24.0343 15.0001 24.0343C11.0933 24.0343 7.78649 21.3957 6.60694 17.8502H1.59558V21.7366C4.06376 26.6389 9.13649 30.0002 15.0001 30.0002Z" fill="#34A853"/>
<path fill-rule="evenodd" clip-rule="evenodd" d="M6.60682 17.8499C6.30682 16.9499 6.13636 15.9885 6.13636 14.9999C6.13636 14.0112 6.30682 13.0499 6.60682 12.1499V8.26349H1.59545C0.579545 10.2885 0 12.5794 0 14.9999C0 17.4203 0.579545 19.7112 1.59545 21.7362L6.60682 17.8499Z" fill="#FBBC05"/>
<path fill-rule="evenodd" clip-rule="evenodd" d="M15.0001 5.96579C17.2024 5.96579 19.1797 6.7226 20.7342 8.20897L25.0365 3.9067C22.4388 1.48624 19.0433 -0.00012207 15.0001 -0.00012207C9.13649 -0.00012207 4.06376 3.36124 1.59558 8.26351L6.60695 12.1499C7.78649 8.60442 11.0933 5.96579 15.0001 5.96579Z" fill="#EA4335"/>
</svg>
