<svg width="81" height="79" viewBox="0 0 81 79" fill="none" xmlns="http://www.w3.org/2000/svg">
<path d="M47.4953 61.1524C41.0521 58.7507 34.4249 58.3812 28.3499 60.044C24.1158 61.1525 20.0658 63.3694 16.384 66.1407L13.8067 68.3577L13.0703 69.0967L14.7271 70.5747C14.9112 70.5747 14.9112 70.7595 15.0953 70.9442C15.4635 71.3137 15.8317 71.4985 16.384 71.868L17.4885 72.607L18.593 71.6832C18.7771 71.4985 19.1453 71.129 19.5135 70.9442C22.8271 68.173 26.5089 66.3255 30.3748 65.4017C35.3453 64.1085 40.6839 64.2932 46.0226 66.3255C50.4408 67.9882 59.4612 70.0205 70.3226 65.4017L70.6908 65.217L71.243 64.6627C71.243 64.478 71.4272 64.4779 71.6112 64.2932C72.5317 63.1847 73.4521 62.0762 74.1885 60.7829L77.8703 55.0557L71.9794 58.3812C63.3271 63.1847 55.4112 64.1084 47.4953 61.1524Z" fill="#201B21"/>
<path d="M22.2751 41.1994C27.2455 39.9061 32.5842 40.0909 37.9228 42.1231C43.8137 44.3402 58.9092 47.4809 75.8456 32.1466L78.6069 29.3754L78.791 29.1906L79.5274 28.4516L79.1592 27.5279C78.9751 26.7888 78.6069 25.8651 78.2387 24.9414L77.3183 22.3548L75.4773 24.2023C75.2933 24.5718 74.9251 24.7566 74.5569 25.1261C66.4569 33.4398 53.9387 41.9384 39.5796 36.7654C33.1364 34.3636 26.5092 33.9941 20.4342 35.6569C14.5433 37.3196 9.38871 40.4604 4.60235 44.8944V44.7096L1.84099 47.6657C1.84099 47.8504 1.65693 47.8504 1.47284 48.0352L0.920532 48.5894L1.10463 49.3284C1.28873 50.2522 1.6569 51.1759 1.84099 52.0997L2.94554 55.0557L4.78645 52.654C4.97054 52.2845 5.33871 52.0997 5.52281 51.7302C9.38871 48.2199 14.7274 43.2316 22.2751 41.1994Z" fill="#201B21"/>
<path d="M4.41823 37.8739C8.65232 33.4399 13.4386 30.6686 18.5932 29.1906C23.5637 27.8973 28.9023 28.0821 34.2409 30.1143C50.8091 36.2111 65.1682 26.2346 71.4273 20.8768L73.8205 18.4751L74.7409 17.736L74.0046 16.6276C73.4523 16.0733 73.0841 15.3343 72.5319 14.5953L71.4273 13.1172L70.1387 14.4105C69.9546 14.5953 69.5864 14.9648 69.4023 15.1495C61.6705 22.5395 49.7046 30.1144 36.0818 24.9413C29.6387 22.5396 23.0114 22.1701 16.9364 23.8328C13.0705 24.9413 9.38865 26.7888 5.70683 29.1906L1.84091 32.3314C1.47273 32.7009 1.28864 32.8856 0.920455 33.2551L0.552306 33.6246V34.1789C0.368216 35.4721 0.368193 36.7654 0.184102 37.8739L0 42.4927L3.12957 39.1671C3.49775 38.7976 3.86595 38.2434 4.41823 37.8739Z" fill="#201B21"/>
<path d="M52.8341 73.7155L52.4659 74.824L52.8341 73.7155C52.2818 73.5307 51.9136 73.346 51.3614 73.1612C44.9182 70.7595 38.2909 70.39 32.2159 72.0528C30.9272 72.4223 29.6386 72.7917 28.35 73.346L23.9318 75.3782L22.8273 75.9325L26.5091 77.2258C27.6136 77.5953 28.7182 77.9648 29.8227 78.3343L30.375 78.519L30.9273 78.3343C31.4795 78.1495 32.0318 77.78 32.5841 77.78C32.9522 77.78 33.3204 77.5953 33.6886 77.4105C38.1068 76.302 42.8931 76.302 48.0477 77.9647C48.6 78.1495 48.9682 78.3343 49.5204 78.519L50.4409 78.8885L50.9932 78.7037C52.2818 78.3342 53.7545 77.9648 54.8591 77.4105L60.0136 75.563L54.675 74.2697C54.1227 74.085 53.3863 73.9002 52.8341 73.7155Z" fill="#201B21"/>
<path d="M80.9999 35.4721L78.2385 38.2434C77.8703 38.6129 77.5022 38.9824 77.134 39.3519C69.5863 46.5572 57.4363 54.3167 43.8135 49.1436C37.3703 46.7419 30.7431 46.3724 24.6681 48.0352C18.9613 49.6979 13.8067 52.6539 9.2044 57.088L6.81124 59.6745L6.07489 60.5982L6.81124 61.7067C7.36352 62.4457 7.73172 63 8.0999 63.739L9.2044 65.4017L10.4931 63.739C10.6772 63.5542 11.0453 63.1847 11.2294 62.9999C15.6476 58.1964 20.434 55.2404 25.9567 53.7624C30.9271 52.4692 36.2658 52.6539 41.6044 54.6862C46.2067 56.3489 50.9931 56.9032 55.7794 56.349C64.2476 55.4252 72.7158 50.6217 78.9749 45.2639C79.3431 44.8944 79.7112 44.7097 80.0794 44.3402L80.6317 43.7859V43.2317C80.6317 42.1232 80.8158 40.8299 80.8158 39.7214L80.9999 35.4721Z" fill="#201B21"/>
<path d="M11.0455 18.4751L10.4933 17.3666L11.0455 18.4751C12.1501 17.9208 13.4388 17.5513 14.5433 17.1818C19.5138 15.8886 24.8524 16.0733 30.191 18.1056C33.6887 19.3988 37.1865 19.9531 41.0524 19.9531C48.7842 19.9531 56.516 17.1818 63.6955 11.8241L66.4569 9.60703L67.3773 8.86804L65.7205 7.57476C65.1683 7.02051 64.4319 6.46628 63.6955 6.09678L62.591 5.35779L61.6705 6.09678C61.3023 6.28153 61.1182 6.65102 60.7501 6.83577C50.9932 14.2258 41.2365 16.2581 32.0319 12.7478C25.4047 10.3461 18.7774 9.7918 12.1501 11.8241C11.5978 12.0088 11.0455 12.1935 10.3092 12.3783L9.94102 12.5631L9.38872 13.1173C9.38872 13.302 9.20466 13.3021 9.02057 13.4868C8.28421 14.5953 7.36372 15.5191 6.62735 16.6276L3.12964 21.9853L8.83647 19.0293C9.75692 19.0293 10.4933 18.6598 11.0455 18.4751Z" fill="#201B21"/>
<path d="M26.1409 5.91199L26.6932 6.09675C29.0864 7.0205 32.7682 7.94426 37.3705 7.94426C42.1569 7.94426 46.7591 6.83574 51.3614 4.98824L57.0682 2.21697L53.2023 0.923754C52.0978 0.554252 50.9932 0.184751 49.7045 0H49.1523L48.6 0.184706C48.0478 0.369456 47.4955 0.739003 46.9432 0.923754C41.4205 2.95601 35.8977 3.32551 30.5591 1.84751C30.0068 1.66276 29.4546 1.47797 28.9023 1.29322L28.35 1.10846L27.7977 1.29322C26.6932 1.66272 25.5887 2.03225 24.4841 2.5865L20.25 4.43401L24.6682 5.72723C25.0364 5.54248 25.5887 5.72724 26.1409 5.91199Z" fill="#201B21"/>
</svg>
